<svg xmlns="http://www.w3.org/2000/svg" viewBox="0 0 64 64" fill="none">
  <rect width="64" height="64" rx="12" fill="#F8F6F2"/>
  <rect x="2" y="2" width="60" height="60" rx="10" stroke="#E5E1D8" stroke-width="2"/>
  <!-- Elegant Envelope Motif with Monogram -->
  <path d="M14 22C14 20.8954 14.8954 20 16 20H48C49.1046 20 50 20.8954 50 22V42C50 43.1046 49.1046 44 48 44H16C14.8954 44 14 43.1046 14 42V22Z" fill="#FFFFFF" stroke="#681426" stroke-width="2.5" stroke-linejoin="round"/>
  <path d="M14 22L32 34L50 22" stroke="#681426" stroke-width="2.5" stroke-linecap="round" stroke-linejoin="round"/>
  <!-- SP Subtle Monogram -->
  <path d="M26 31C24.5 31 23 31.8 23 33.2C23 35.8 28 35.2 28 38C28 39.5 26.5 40.5 24.5 40.5C23 40.5 21.8 39.8 21.2 39" stroke="#681426" stroke-width="2" stroke-linecap="round"/>
  <path d="M33 31H38C39.7 31 41 32.1 41 33.7C41 35.3 39.7 36.5 38 36.5H33V40.5" stroke="#681426" stroke-width="2" stroke-linecap="round" stroke-linejoin="round"/>
</svg>
